# xmcd
#
# Track frame offsets:
#  150
#  11784
#  23939
#  36288
#  47211
#  58408
#  70691
#  80862
#  91795
#  103041
#  114374
#  126047
#  138445
#  150271
#  163055
#  176746
#  190294
#  202690
#  215359
#  227761
#
# Disc length: 3191 seconds
#
# Revision: 0
# Processed by: cddbd v1.5.1PL2 Copyright (c) Steve Scherf et al.
# Submitted via: Collectorz.com_Music_Collector 6.9
#
DISCID=120c7514
DTITLE=Ray Price - Essential Ray Price
DYEAR=1991
DGENRE=Country
TTITLE0=If You're Ever Lonely Darling
TTITLE1=The Road of No Return
TTITLE2=Talk to Your Heart
TTITLE3=Move On In and Stay
TTITLE4=I'll Be There
TTITLE5=Release Me
TTITLE6=I Can't Go Home Like This
TTITLE7=You Done Me Wrong
TTITLE8=Falling Falling Falling
TTITLE9=Wasted Words
TTITLE10=Crazy Arms
TTITLE11=I've Got a New Heartache
TTITLE12=My Shoes Keep Walking Back to You
TTITLE13=Invitation to the Blues
TTITLE14=City Lights
TTITLE15=Heartaches By Number
TTITLE16=The Same Old Me
TTITLE17=One More Time
TTITLE18=Heart Over Mind
TTITLE19=Pride
EXTD=
EXTT0=
EXTT1=
EXTT2=
EXTT3=
EXTT4=
EXTT5=
EXTT6=
EXTT7=
EXTT8=
EXTT9=
EXTT10=
EXTT11=
EXTT12=
EXTT13=
EXTT14=
EXTT15=
EXTT16=
EXTT17=
EXTT18=
EXTT19=
PLAYORDER=
